<svg width="30" height="30" xmlns="http://www.w3.org/2000/svg">

 <g>
  <title>background</title>
  <rect fill="none" id="canvas_background" height="32" width="32" y="-1" x="-1"/>
 </g>
 <g>
  <title>Layer 1</title>
  <path stroke="null" fill="#ffb300" id="svg_1" d="m3.686926,16.257027l19.59173,0l-6.742592,6.742592c-0.490862,0.490862 -0.490862,1.286862 -0.000314,1.77741c0.490862,0.490862 1.287176,0.490862 1.778038,0l8.887991,-8.888305l0,0c0.058451,-0.058451 0.110617,-0.122873 0.156498,-0.191379c0.021055,-0.031739 0.035825,-0.065993 0.054051,-0.098989c0.020741,-0.038967 0.044624,-0.076049 0.061279,-0.117216c0.017912,-0.042424 0.027968,-0.086419 0.040539,-0.130415c0.01037,-0.034882 0.023883,-0.068193 0.031111,-0.104017c0.016341,-0.081706 0.024826,-0.16404 0.024826,-0.246688l0,0c0,-0.000943 -0.000314,-0.001886 -0.000314,-0.002828c-0.000314,-0.081391 -0.008485,-0.163097 -0.024512,-0.243231c-0.007542,-0.03771 -0.021683,-0.072592 -0.032682,-0.109674c-0.012256,-0.041796 -0.021683,-0.08422 -0.038653,-0.124758c-0.018227,-0.043681 -0.042738,-0.083277 -0.065364,-0.124444c-0.01697,-0.030797 -0.030482,-0.062222 -0.049966,-0.091762c-0.045881,-0.06945 -0.098675,-0.134186 -0.15744,-0.192951l-8.887676,-8.887362c-0.490862,-0.490862 -1.286862,-0.490862 -1.777724,-0.000314c-0.490862,0.490862 -0.490862,1.286862 0,1.778038l6.742592,6.742278l-19.591415,0c-0.694183,0 -1.257008,0.562825 -1.257008,1.257008c0,0.694183 0.562825,1.257008 1.257008,1.257008z"/>
 </g>
</svg>