<svg id="Group_10" data-name="Group 10" xmlns="http://www.w3.org/2000/svg" width="21.658" height="19.844" viewBox="0 0 21.658 19.844">
  <g id="Group_8" data-name="Group 8" transform="translate(0 0)">
    <g id="Group_5" data-name="Group 5" transform="translate(11.008 0.14)">
      <path id="Path_12" data-name="Path 12" d="M51.827,5.08a7.8,7.8,0,0,1,5.251,1.985,6.509,6.509,0,0,1,2.169,4.784.983.983,0,0,0,1.027.94h0a.983.983,0,0,0,1.027-.94A8.27,8.27,0,0,0,58.54,5.707,10.143,10.143,0,0,0,51.827,3.2a.983.983,0,0,0-1.027.94A.983.983,0,0,0,51.827,5.08Z" transform="translate(-50.8 -3.2)" fill="#ffffff"/>
    </g>
    <g id="Group_6" data-name="Group 6" transform="translate(11.008 3.754)">
      <path id="Path_13" data-name="Path 13" d="M51.827,22.38a3.621,3.621,0,0,1,2.466.94,3.032,3.032,0,0,1,1.027,2.256,1.031,1.031,0,0,0,2.055,0,4.832,4.832,0,0,0-1.621-3.593A5.778,5.778,0,0,0,51.827,20.5a.944.944,0,1,0,0,1.88Z" transform="translate(-50.8 -20.5)" fill="#ffffff"/>
    </g>
    <g id="Group_7" data-name="Group 7">
      <path id="Path_14" data-name="Path 14" d="M23.455,16.941l-4.429-2.089a1.57,1.57,0,0,0-1.826.355l-1.621,1.9a16.361,16.361,0,0,1-4.178-2.8,15.231,15.231,0,0,1-3.105-3.886L10.35,8.96a1.254,1.254,0,0,0,.388-1.671L8.477,3.257a1.532,1.532,0,0,0-2.1-.5L3.546,4.468a1.979,1.979,0,0,0-.959,1.8,12.2,12.2,0,0,0,.342,2.3,18.888,18.888,0,0,0,5.548,8.4,21.186,21.186,0,0,0,9.178,5.1,18.476,18.476,0,0,0,2.534.313,2.293,2.293,0,0,0,1.986-.919L24,18.842A1.265,1.265,0,0,0,23.455,16.941Z" transform="translate(-2.583 -2.532)" fill="#ffffff"/>
    </g>
  </g>
</svg>
