<svg xmlns="http://www.w3.org/2000/svg" width="28.656" height="17.7" viewBox="0 0 28.656 17.7">
  <g id="Group_11" data-name="Group 11" transform="translate(0 0)">
    <g id="noun_Mail_1703244">
      <g id="Group_9" data-name="Group 9">
        <path id="Path_15" data-name="Path 15" d="M12.149,975.362a2.322,2.322,0,0,0-.806.144l12.179,10.038a1.129,1.129,0,0,0,1.589,0l12.2-10.038a2.333,2.333,0,0,0-.806-.143H12.149Zm-2.127,1.7a1.855,1.855,0,0,0-.022.266v13.766a2.059,2.059,0,0,0,2.149,1.967H36.506a2.059,2.059,0,0,0,2.149-1.967V977.328a1.856,1.856,0,0,0-.022-.266l-12.089,9.946a3.579,3.579,0,0,1-4.455,0Z" transform="translate(-10 -975.362)" fill="#ffffff"/>
      </g>
    </g>
  </g>
</svg>
