<svg xmlns="http://www.w3.org/2000/svg" width="46" height="45" viewBox="0 0 46 45">
  <g id="Group_3922" data-name="Group 3922" transform="translate(-0.043 -0.373)">
    <g id="Group_3921" data-name="Group 3921" transform="translate(0 0)">
      <g id="Ellipse_286" data-name="Ellipse 286" transform="translate(0.043 0.373)" fill="none" stroke="#fff" stroke-width="3">
        <ellipse cx="23" cy="22.5" rx="23" ry="22.5" stroke="none"/>
        <ellipse cx="23" cy="22.5" rx="21.5" ry="21" fill="none"/>
      </g>
    </g>
    <g id="noun_Cloud_Money_3383618" data-name="noun_Cloud Money_3383618" transform="translate(8.796 10.859)">
      <g id="Glyph_ComPath" data-name="Glyph ComPath" transform="translate(0 0)">
        <path id="Path_10096" data-name="Path 10096" d="M15.871,13.908a6.936,6.936,0,1,0,6.936,6.936,6.936,6.936,0,0,0-6.936-6.936Zm.991,5.945a1.984,1.984,0,0,1,1.982,1.982v.991a1.984,1.984,0,0,1-1.982,1.982.991.991,0,0,1-1.982,0A1.984,1.984,0,0,1,12.9,22.825a.991.991,0,0,1,1.982,0h1.982v-.991H14.88A1.984,1.984,0,0,1,12.9,19.853v-.991A1.984,1.984,0,0,1,14.88,16.88a.991.991,0,0,1,1.982,0,1.984,1.984,0,0,1,1.982,1.982.991.991,0,0,1-1.982,0H14.88v.991Zm12.88-2.972a5.949,5.949,0,0,1-5.169,5.888,8.917,8.917,0,1,0-17.4,0,5.938,5.938,0,0,1-.215-11.744v-.089a6.934,6.934,0,0,1,13.2-2.969,4.448,4.448,0,0,1,4.366,3.017A5.95,5.95,0,0,1,29.742,16.88Z" transform="translate(-1.999 -3.999)" fill="#fff"/>
      </g>
    </g>
  </g>
</svg>
