<svg xmlns="http://www.w3.org/2000/svg" width="46" height="45" viewBox="0 0 46 45">
  <g id="Group_3970" data-name="Group 3970" transform="translate(-0.323 -0.373)">
    <g id="Group_3918" data-name="Group 3918" transform="translate(0)">
      <g id="Ellipse_286" data-name="Ellipse 286" transform="translate(0.323 0.373)" fill="none" stroke="#fff" stroke-width="3">
        <ellipse cx="23" cy="22.5" rx="23" ry="22.5" stroke="none"/>
        <ellipse cx="23" cy="22.5" rx="21.5" ry="21" fill="none"/>
      </g>
    </g>
    <g id="noun_Money_2649593" transform="translate(11.122 10.975)">
      <g id="Group_3925" data-name="Group 3925" transform="translate(0 0)">
        <g id="Group_3923" data-name="Group 3923" transform="translate(1.447 1.672)">
          <path id="Path_10097" data-name="Path 10097" d="M45.591,49.668v5.689h.029a4.556,4.556,0,0,0,1.179-.152V49.881q-.361-.072-.837-.152Z" transform="translate(-35.462 -38.473)" fill="#fff"/>
          <path id="Path_10098" data-name="Path 10098" d="M38.9,30.446a3.032,3.032,0,0,0-.362,1.417,2.171,2.171,0,0,0,.219.994,1.863,1.863,0,0,0,.565.684,2.428,2.428,0,0,0,.809.376l.02,0V29.355c-.062.025-.126.046-.186.073A2.216,2.216,0,0,0,38.9,30.446Z" transform="translate(-30.639 -24.591)" fill="#fff"/>
          <path id="Path_10099" data-name="Path 10099" d="M45.591,28.635v4.878c.284.051.632.107,1.047.168l.162.024V28.6a4.131,4.131,0,0,0-.5-.032A3.706,3.706,0,0,0,45.591,28.635Z" transform="translate(-35.462 -24.051)" fill="#fff"/>
          <path id="Path_10100" data-name="Path 10100" d="M52.266,51.217a2.725,2.725,0,0,0-.879-.419l-.016,0v4.966l.01,0a2.837,2.837,0,0,0,1.25-1.089,2.989,2.989,0,0,0,.447-1.611,2.591,2.591,0,0,0-.214-1.093A1.857,1.857,0,0,0,52.266,51.217Z" transform="translate(-39.413 -39.243)" fill="#fff"/>
          <path id="Path_10101" data-name="Path 10101" d="M24.329,14.305A10.733,10.733,0,1,0,35.062,25.038,10.733,10.733,0,0,0,24.329,14.305Zm2.929,16.418a5.777,5.777,0,0,1-1.7.966v1.745h-.621V31.881a6.808,6.808,0,0,1-1.208.176v1.377H23.1V32.07a7.884,7.884,0,0,1-3.3-.7l-.057-.124a27.973,27.973,0,0,0,.142-2.795l.076-.076h.466l.076.076a8.833,8.833,0,0,0,.128,1.488,1.212,1.212,0,0,0,.514.57A3.664,3.664,0,0,0,22.3,31a5.683,5.683,0,0,0,.8.15V25.389c-.187-.036-.353-.071-.5-.1a5.073,5.073,0,0,1-1.07-.381,2.845,2.845,0,0,1-.889-.651,2.965,2.965,0,0,1-.57-.97,3.494,3.494,0,0,1-.214-1.231A3.78,3.78,0,0,1,21.1,19.138a4.194,4.194,0,0,1,2-1v-1.5h.621v1.4A6.724,6.724,0,0,1,24.419,18c.166,0,.338.008.513.02V16.641h.621v1.449c.217.031.438.068.667.116a7.324,7.324,0,0,1,1.773.6l.066.114a13.006,13.006,0,0,0-.257,2.491l-.085.076h-.495l-.076-.066q-.019-1.141-.057-1.435t-.865-.732a3.78,3.78,0,0,0-.671-.275V24.06a7.733,7.733,0,0,1,1.665.45,2.73,2.73,0,0,1,1.227,1.07,3.255,3.255,0,0,1,.461,1.768A4.186,4.186,0,0,1,27.257,30.723Z" transform="translate(-13.596 -14.305)" fill="#fff"/>
        </g>
        <g id="Group_3924" data-name="Group 3924">
          <path id="Path_10102" data-name="Path 10102" d="M56.208,9.988a11.6,11.6,0,0,1,8.21,8.21.491.491,0,1,0,.948-.253A12.584,12.584,0,0,0,62.107,12.3h0A12.59,12.59,0,0,0,56.46,9.04a.491.491,0,1,0-.253.948Z" transform="translate(-41.022 -9.023)" fill="#fff"/>
          <path id="Path_10103" data-name="Path 10103" d="M65.018,55.86a.49.49,0,0,0-.6.348,11.6,11.6,0,0,1-8.21,8.209.491.491,0,0,0,.253.949,12.582,12.582,0,0,0,8.9-8.9A.491.491,0,0,0,65.018,55.86Z" transform="translate(-41.022 -41.021)" fill="#fff"/>
          <path id="Path_10104" data-name="Path 10104" d="M18.2,64.418a11.6,11.6,0,0,1-5.206-3h0a11.6,11.6,0,0,1-3-5.2.49.49,0,1,0-.948.253A12.586,12.586,0,0,0,12.3,62.108h0a12.588,12.588,0,0,0,5.646,3.258.491.491,0,0,0,.474-.127.486.486,0,0,0,.127-.22A.492.492,0,0,0,18.2,64.418Z" transform="translate(-9.026 -41.022)" fill="#fff"/>
          <path id="Path_10105" data-name="Path 10105" d="M17.946,9.04a12.585,12.585,0,0,0-8.9,8.9.491.491,0,0,0,.821.474.485.485,0,0,0,.126-.22,11.6,11.6,0,0,1,8.21-8.21.491.491,0,0,0-.253-.949Z" transform="translate(-9.025 -9.023)" fill="#fff"/>
        </g>
      </g>
    </g>
  </g>
</svg>
