<svg xmlns="http://www.w3.org/2000/svg" width="47" height="45" viewBox="0 0 47 45">
  <g id="Group_3920" data-name="Group 3920" transform="translate(0.125 -0.373)">
    <g id="noun_Money_252363" transform="translate(6.516 9.787)">
      <g id="Group_3917" data-name="Group 3917" transform="translate(0 0)">
        <path id="Path_10095" data-name="Path 10095" d="M27.761,42.93a5.037,5.037,0,0,1-1.678.7,52.17,52.17,0,0,1-8.322.8h-.28a.453.453,0,0,1-.455-.35.388.388,0,0,1,.385-.455l7.343-.7a1.553,1.553,0,0,0,1.364-1.678,1.6,1.6,0,0,0-1.678-1.4l-6.538-.07a5.914,5.914,0,0,1-1.573-.245,10.34,10.34,0,0,0-7.832.455,1.543,1.543,0,0,0-1.4-.734l-2.832.175a1.648,1.648,0,0,0-1.573,1.748l.42,6.294a1.66,1.66,0,0,0,1.818,1.5L7.761,48.8a1.516,1.516,0,0,0,1.294-.909l12.377.524a6.757,6.757,0,0,0,3.881-.664l.35-.175L35,42.126a1.623,1.623,0,0,0,.8-1.259,1.287,1.287,0,0,0-1.224-1.4,6.623,6.623,0,0,0-2.308.839C30.977,40.972,27.866,42.895,27.761,42.93ZM5.978,47.51a.91.91,0,1,1,.944-.909A.933.933,0,0,1,5.978,47.51ZM32.97,38.664c-.385.14-.734.315-1.049.455A44.43,44.43,0,0,0,27.9,41.391a1.939,1.939,0,0,0-.28.21v-.524a4.065,4.065,0,0,0-.14-.629v-.035c.979-.524,2.9-1.469,3.986-1.888A1.65,1.65,0,0,1,32.97,38.664Zm-6.783.21c.629-.35,3.776-1.294,4.231-.979-.769.35-2.238.839-2.937,1.224l-.49.245a.182.182,0,0,1-.14.07A3.716,3.716,0,0,0,26.187,38.874ZM21.362,23a7.447,7.447,0,1,0,7.447,7.447A7.454,7.454,0,0,0,21.362,23ZM23.5,33.419a2.389,2.389,0,0,1-1.259.8c-.21.07-.315.175-.315.385v.664c0,.21-.1.315-.28.315h-.7a.278.278,0,0,1-.315-.315v-.49c0-.35,0-.385-.35-.42a4.769,4.769,0,0,1-1.259-.35c-.315-.14-.35-.245-.245-.559l.21-.734c.1-.28.175-.315.42-.175a4.037,4.037,0,0,0,1.4.42,1.979,1.979,0,0,0,.909-.1.718.718,0,0,0,.175-1.259,4.163,4.163,0,0,0-.524-.315c-.49-.21-.979-.385-1.434-.629A2.1,2.1,0,0,1,18.775,28.7a2.164,2.164,0,0,1,1.573-1.993c.385-.14.385-.14.385-.524v-.42c0-.315.07-.35.35-.35h.28c.629,0,.629,0,.629.629,0,.455,0,.455.455.524a4.511,4.511,0,0,1,.979.28.273.273,0,0,1,.175.385,7.594,7.594,0,0,1-.245.839c-.07.245-.175.28-.42.175a3.034,3.034,0,0,0-1.573-.315,1.755,1.755,0,0,0-.42.07.58.58,0,0,0-.14,1.049,2.732,2.732,0,0,0,.7.385c.42.175.839.35,1.259.559A2.246,2.246,0,0,1,23.5,33.419Z" transform="translate(-2.686 -23)" fill="#fff"/>
      </g>
    </g>
    <g id="Ellipse_286" data-name="Ellipse 286" transform="translate(-0.125 0.373)" fill="none" stroke="#fff" stroke-width="3">
      <ellipse cx="23.5" cy="22.5" rx="23.5" ry="22.5" stroke="none"/>
      <ellipse cx="23.5" cy="22.5" rx="22" ry="21" fill="none"/>
    </g>
  </g>
</svg>
