<svg id="noun_Pencil_589347" xmlns="http://www.w3.org/2000/svg" width="14" height="14" viewBox="0 0 14 14">
  <path id="Path_10067" data-name="Path 10067" d="M15.459,4.731l-2.194-2.2a1.885,1.885,0,0,0-2.654,0L3.457,9.7a.385.385,0,0,0-.1.187L2.043,15.5a.387.387,0,0,0,.1.364.405.405,0,0,0,.364.1l5.606-1.315a.385.385,0,0,0,.187-.1l7.155-7.165A1.846,1.846,0,0,0,15.459,4.731ZM9.79,4.459l1.6,1.6-5,5a2.227,2.227,0,0,0-.584-1.017,2.195,2.195,0,0,0-1.014-.584ZM2.941,15.071l.3-1.292a3.084,3.084,0,0,1,.989.989Zm2.078-.488a3.842,3.842,0,0,0-1.593-1.593l.65-2.789a1.316,1.316,0,0,1,1.18.4,1.3,1.3,0,0,1,.372,1.29.388.388,0,0,0,.491.491,1.29,1.29,0,0,1,1.287.372,1.318,1.318,0,0,1,.4,1.182Zm3.522-1.367a2.248,2.248,0,0,0-1.6-1.6l5-5.007,1.6,1.6Zm5.545-5.556L10.339,3.907l.821-.824a1.085,1.085,0,0,1,1.554,0l2.194,2.2a1.037,1.037,0,0,1,0,1.557Z" transform="translate(-2.033 -1.978)" fill="#777171"/>
</svg>
