<svg width="15.49" height="16" xmlns="http://www.w3.org/2000/svg">
 <title/>
 <desc/>

 <g>
  <title>background</title>
  <rect fill="none" id="canvas_background" height="18" width="17.49" y="-1" x="-1"/>
 </g>
 <g>
  <title>Layer 1</title>
  <path fill="#feb200" stroke="null" id="Shape" d="m3.108774,6.947664c1.191911,2.383822 3.235187,4.341962 5.61901,5.61901l1.873003,-1.873003c0.25541,-0.25541 0.595956,-0.340546 0.851365,-0.170273c0.936502,0.340546 1.95814,0.510819 3.064914,0.510819c0.510819,0 0.851365,0.340546 0.851365,0.851365l0,2.894641c0,0.510819 -0.340546,0.851365 -0.851365,0.851365c-8.002832,0 -14.473207,-6.470375 -14.473207,-14.473207c0,-0.510819 0.340546,-0.851365 0.851365,-0.851365l2.979778,0c0.510819,0 0.851365,0.340546 0.851365,0.851365c0,1.021638 0.170273,2.043276 0.510819,3.064914c0.085137,0.25541 0,0.595956 -0.170273,0.851365l-1.95814,1.873003l0,0z"/>
 </g>
</svg>