<svg width="20" height="20" xmlns="http://www.w3.org/2000/svg">

 <g>
  <rect fill="none" id="canvas_background" height="22" width="22" y="-1" x="-1"/>
 </g>
 <g>
  <g stroke="null" id="svg_5">
   <path fill="#ffffff" stroke="null" id="svg_2" d="m19.217536,16.610339l-4.513567,-4.513567c-0.673162,1.045707 -1.562105,1.935264 -2.607812,2.607812l4.514182,4.513567c0.720499,0.720499 1.887928,0.720499 2.607197,0c0.721113,-0.718654 0.721113,-1.886083 0,-2.607812z"/>
   <path fill="#ffffff" stroke="null" id="svg_3" d="m14.840445,7.463326c0,-4.074014 -3.303105,-7.377119 -7.377119,-7.377119s-7.377119,3.303105 -7.377119,7.377119s3.303105,7.377119 7.377119,7.377119s7.377119,-3.303105 7.377119,-7.377119zm-7.377119,5.532839c-3.051668,0 -5.532839,-2.481171 -5.532839,-5.532839c0,-3.051054 2.481171,-5.532839 5.532839,-5.532839c3.051054,0 5.532839,2.481786 5.532839,5.532839c0,3.051668 -2.481786,5.532839 -5.532839,5.532839z"/>
   <path fill="#ffffff" stroke="null" id="svg_4" d="m3.160006,7.463326l1.22952,0c0,-1.694893 1.378292,-3.0738 3.0738,-3.0738l0,-1.22952c-2.372973,0 -4.30332,1.931576 -4.30332,4.30332z"/>
  </g>
 </g>
</svg>