<svg width="16" height="16" xmlns="http://www.w3.org/2000/svg">
 <title/>

 <g>
  <title>background</title>
  <rect fill="none" id="canvas_background" height="18" width="18" y="-1" x="-1"/>
 </g>
 <g>
  <title>Layer 1</title>
  <path stroke="null" fill="#ff0000" id="Rectangle 1 copy 2" d="m12.793046,8c-0.11955,-1.081395 -1.036356,-1.922497 -2.149612,-1.922497c-0.50814,0 -0.97535,0.175236 -1.344494,0.46857c-0.417441,-1.38352 -1.701775,-2.391068 -3.221437,-2.391068c-1.858089,0 -3.36437,1.506281 -3.36437,3.36437c0,0.180614 0.014231,0.357907 0.041636,0.530811c-0.850148,0.198575 -1.483509,0.963008 -1.483509,1.872311c0,1.061766 0.862298,1.922497 1.920979,1.922497l9.615524,0c1.060925,0 1.920979,-0.862894 1.920979,-1.922497c0,-1.061766 -0.862298,-1.922497 -1.920979,-1.922497l-0.014717,0zm-12.483035,1.922497c0,-1.065621 0.580373,-1.998609 1.442887,-2.497809c0.050369,-2.34525 1.967272,-4.230931 4.324605,-4.230931c1.554099,0 2.916774,0.819565 3.679405,2.050069c0.28104,-0.083018 0.57858,-0.127572 0.886526,-0.127572c1.338322,0 2.480094,0.841549 2.925003,2.024342c1.222641,0.334298 2.121553,1.453153 2.121553,2.781902c0,1.58941 -1.291135,2.883746 -2.883832,2.883746l-9.612314,0c-1.592405,0 -2.883832,-1.291096 -2.883832,-2.883746zm7.689989,-0.480624c-0.267294,0 -0.480624,-0.215815 -0.480624,-0.482033l0,-2.400305c0,-0.271577 0.215185,-0.482033 0.480624,-0.482033c0.267294,0 0.480624,0.215815 0.480624,0.482033l0,2.400305c0,0.271577 -0.215185,0.482033 -0.480624,0.482033zm0,1.922497c-0.265439,0 -0.480624,-0.215185 -0.480624,-0.480624c0,-0.265439 0.215185,-0.480624 0.480624,-0.480624c0.265439,0 0.480624,0.215185 0.480624,0.480624c0,0.265439 -0.215185,0.480624 -0.480624,0.480624zm0,0"/>
 </g>
</svg>