<svg width="25.06" height="22.92" xmlns="http://www.w3.org/2000/svg">

 <g>
  <title>background</title>
  <rect fill="none" id="canvas_background" height="24.92" width="27.06" y="-1" x="-1"/>
 </g>
 <g>
  <title>Layer 1</title>
  <g stroke="null" id="svg_5">
   <path fill="#777171" stroke="null" id="svg_2" d="m17.069254,15.247353c0.222786,0.222786 0.222786,0.556964 0,0.779749c-0.111393,0.111393 -0.278482,0.167089 -0.389875,0.167089s-0.278482,-0.055696 -0.389875,-0.167089l-3.787354,-3.787354l-3.787354,3.787354c-0.111393,0.111393 -0.278482,0.167089 -0.389875,0.167089s-0.278482,-0.055696 -0.389875,-0.167089c-0.222786,-0.222786 -0.222786,-0.556964 0,-0.779749l3.787354,-3.787354l-3.787354,-3.787354c-0.222786,-0.222786 -0.222786,-0.556964 0,-0.779749c0.222786,-0.222786 0.556964,-0.222786 0.779749,0l3.787354,3.787354l3.787354,-3.787354c0.222786,-0.222786 0.556964,-0.222786 0.779749,0c0.222786,0.222786 0.222786,0.556964 0,0.779749l-3.787354,3.787354l3.787354,3.787354z"/>
   <path fill="#777171" stroke="null" id="svg_4" d="m12.502151,22.599276c-6.126602,0 -11.139276,-5.012674 -11.139276,-11.139276s5.012674,-11.139276 11.139276,-11.139276c2.506337,0 4.845585,0.835446 6.850655,2.339248c0.222786,0.167089 0.278482,0.556964 0.111393,0.779749c-0.167089,0.222786 -0.556964,0.278482 -0.779749,0.111393c-1.782284,-1.39241 -3.898747,-2.116462 -6.126602,-2.116462c-5.513942,0 -10.025348,4.511407 -10.025348,10.025348s4.511407,10.025348 10.025348,10.025348s10.025348,-4.511407 10.025348,-10.025348c0,-1.782284 -0.501267,-3.564568 -1.39241,-5.124067c-0.167089,-0.278482 -0.055696,-0.61266 0.167089,-0.779749c0.278482,-0.167089 0.61266,-0.055696 0.779749,0.167089c1.002535,1.726588 1.559499,3.675961 1.559499,5.681031c-0.055696,6.182298 -5.068371,11.194972 -11.194972,11.194972z"/>
  </g>
 </g>
</svg>