<svg xmlns="http://www.w3.org/2000/svg" width="16.865" height="20.429" viewBox="0 0 16.865 20.429">
  <g id="Group_14" data-name="Group 14" transform="matrix(0.966, -0.259, 0.259, 0.966, -18.373, 3.037)">
    <path id="Path_7" data-name="Path 7" d="M27.256,22.691c1.5.477,3.121-2.406,3.131-2.889.016-.824-2.521-3.375-2.893-3.175a8.326,8.326,0,0,1-2.6.807c-1.1-.309-3.962-5.264-3.679-6.372a8.324,8.324,0,0,1,2-1.849c.359-.222-.581-3.695-1.3-4.093-.423-.233-3.729-.273-4.068,1.266-1.165,5.306,4.236,14.662,9.414,16.305Z" transform="translate(0)" fill="#777171" fill-rule="evenodd"/>
  </g>
</svg>
