<svg xmlns="http://www.w3.org/2000/svg" width="16.999" height="16.999" viewBox="0 0 16.999 16.999">
  <path id="Path_9987" data-name="Path 9987" d="M16.848,16.143a8.477,8.477,0,0,0,.013-11.271.455.455,0,0,0-.054-.063,8.487,8.487,0,0,0-12.614,0,.37.37,0,0,0-.055.063,8.477,8.477,0,0,0,0,11.256.454.454,0,0,0,.054.063,8.488,8.488,0,0,0,12.616,0A.507.507,0,0,0,16.848,16.143ZM2.748,10.87H6.065a14.966,14.966,0,0,0,.554,3.8,10.471,10.471,0,0,0-2.088.78A7.716,7.716,0,0,1,2.748,10.87ZM4.531,5.546a10.471,10.471,0,0,0,2.088.78,14.967,14.967,0,0,0-.554,3.8H2.739A7.716,7.716,0,0,1,4.531,5.546ZM18.26,10.13H14.934a14.967,14.967,0,0,0-.554-3.8,10.471,10.471,0,0,0,2.088-.78A7.716,7.716,0,0,1,18.26,10.13ZM10.13,6.065A14.64,14.64,0,0,1,7.587,5.8C8.2,4.146,9.11,3,10.13,2.78ZM7.358,6.5A15.473,15.473,0,0,0,10.13,6.8V10.13H6.8A14.093,14.093,0,0,1,7.358,6.5ZM10.13,10.87V14.2a15.473,15.473,0,0,0-2.772.3A14.093,14.093,0,0,1,6.8,10.87Zm0,4.065V18.22C9.11,18,8.2,16.854,7.587,15.21A14.64,14.64,0,0,1,10.13,14.934Zm.739,0a14.639,14.639,0,0,1,2.542.27c-.61,1.644-1.523,2.786-2.542,3.01ZM13.64,14.5a15.473,15.473,0,0,0-2.772-.3V10.87h3.326A14.093,14.093,0,0,1,13.64,14.5ZM10.869,10.13V6.8a15.473,15.473,0,0,0,2.772-.3,14.092,14.092,0,0,1,.554,3.629Zm0-4.065V2.78C11.889,3,12.8,4.146,13.411,5.79a14.64,14.64,0,0,1-2.542.275Zm3.282-.44a7.311,7.311,0,0,0-1.487-2.578,7.76,7.76,0,0,1,3.283,1.931,10.015,10.015,0,0,1-1.8.641Zm-7.3,0a10.015,10.015,0,0,1-1.8-.641A7.76,7.76,0,0,1,8.336,3.048,7.311,7.311,0,0,0,6.848,5.62Zm0,9.76a7.311,7.311,0,0,0,1.487,2.572,7.76,7.76,0,0,1-3.283-1.936,10.015,10.015,0,0,1,1.8-.641Zm7.3,0a10.014,10.014,0,0,1,1.8.641,7.76,7.76,0,0,1-3.283,1.925A7.311,7.311,0,0,0,14.15,15.38Zm.229-.711a14.966,14.966,0,0,0,.554-3.8H18.26a7.716,7.716,0,0,1-1.792,4.584,10.471,10.471,0,0,0-2.088-.78Z" transform="translate(-2 -2)" fill="#777171"/>
</svg>
