<svg id="Group_3835" data-name="Group 3835" xmlns="http://www.w3.org/2000/svg" width="44.349" height="50.159" viewBox="0 0 44.349 50.159">
  <path id="Path_10040" data-name="Path 10040" d="M21.751,34.262V27.889a14.921,14.921,0,1,1,29.842,0v6.373a1.561,1.561,0,0,0,1.561,1.561h1.939a3.757,3.757,0,0,0,3.753-3.753V29.095a3.757,3.757,0,0,0-3.753-3.753h-.561a18.041,18.041,0,0,0-35.72,0h-.561A3.757,3.757,0,0,0,14.5,29.1v2.976a3.757,3.757,0,0,0,3.753,3.753h1.939A1.562,1.562,0,0,0,21.751,34.262ZM55.723,29.1v2.976a.63.63,0,0,1-.63.63h-.377V28.466h.377A.629.629,0,0,1,55.723,29.1Zm-38.1,2.976V29.1a.63.63,0,0,1,.63-.63h.377V32.7h-.377A.63.63,0,0,1,17.621,32.071Z" transform="translate(-14.498 -9.846)" fill="#777171"/>
  <path id="Path_10041" data-name="Path 10041" d="M62.425,51.248c0-.013,0-.026-.008-.039l0-.015a1.561,1.561,0,0,0-.14-.32c-.012-.022-.024-.043-.038-.065a1.579,1.579,0,0,0-.223-.282c-.013-.013-.027-.024-.041-.036a1.564,1.564,0,0,0-.29-.213c-.007,0-.012-.01-.019-.014l-.008,0a1.532,1.532,0,0,0-.347-.132l-.07-.017a1.56,1.56,0,0,0-.32-.037h-5.1a12.678,12.678,0,0,0-7.16-7.762,11.2,11.2,0,0,0,2.931-7.588V32.27a8.956,8.956,0,0,0-8.945-8.945H37.968a8.956,8.956,0,0,0-8.945,8.945v2.455a11.2,11.2,0,0,0,2.934,7.592,12.705,12.705,0,0,0-7.784,11.655v2.541a4.061,4.061,0,0,0,4.06,4.054h12.8V63.5a1.561,1.561,0,0,0,1.561,1.561H60.918A1.561,1.561,0,0,0,62.479,63.5V51.636c0-.012-.005-.024-.005-.037A1.553,1.553,0,0,0,62.425,51.248ZM47.876,53.2h7.756L51.754,55.71ZM32.145,32.271a5.829,5.829,0,0,1,5.822-5.822H42.64a5.829,5.829,0,0,1,5.822,5.822v2.455a8.1,8.1,0,0,1-3.885,6.949l-.013.007a7.894,7.894,0,0,1-2.051.887,8.381,8.381,0,0,1-5.475-.369,7.593,7.593,0,0,1-.989-.516l-.026-.013a8.1,8.1,0,0,1-3.878-6.944V32.271ZM28.232,57.446a.935.935,0,0,1-.937-.931V53.974a9.56,9.56,0,0,1,7.638-9.328l.044.022c.132.071.267.137.4.2.085.041.169.083.255.122.154.071.311.135.468.2l.154.061a11.2,11.2,0,0,0,8.1,0l.133-.053c.161-.064.322-.131.48-.2.094-.042.186-.089.279-.134.122-.059.244-.118.364-.182l.063-.032a9.544,9.544,0,0,1,6.8,5.43h-9.89a1.562,1.562,0,0,0-.287.029l-.05.01c-.019,0-.036.011-.054.016a1.68,1.68,0,0,0-.167.052c-.034.013-.067.027-.1.042s-.054.023-.08.037c0,0-.006,0-.007,0s-.012.01-.019.014-.033.021-.049.031-.058.034-.085.054a1.553,1.553,0,0,0-.157.129c-.011.011-.024.019-.036.029l-.018.017a1.6,1.6,0,0,0-.176.213c-.013.019-.022.039-.035.059s-.024.041-.036.062c-.022.04-.045.08-.064.122s-.026.066-.039.1-.027.064-.037.1c0,.006,0,.011,0,.017s0,.024-.007.036,0,.014,0,.021c-.009.035-.016.07-.022.106a1.518,1.518,0,0,0-.021.2c0,.02-.006.039-.006.059v5.809h-12.8Zm15.921,4.5V54.509l6.752,4.373a1.562,1.562,0,0,0,1.7,0l6.752-4.372v7.434h-15.2Z" transform="translate(-18.13 -14.906)" fill="#777171"/>
  <path id="Path_10042" data-name="Path 10042" d="M33.4,70.37a1.576,1.576,0,0,0-.456,1.106,1.561,1.561,0,0,0,3.123,0A1.585,1.585,0,0,0,35.6,70.37,1.62,1.62,0,0,0,33.4,70.37Z" transform="translate(-21.421 -32.405)" fill="#777171"/>
</svg>
