<svg xmlns="http://www.w3.org/2000/svg" width="46" height="45" viewBox="0 0 46 45">
  <g id="Group_3946" data-name="Group 3946" transform="translate(-0.428 -0.373)">
    <g id="Group_3919" data-name="Group 3919" transform="translate(0 0)">
      <g id="Ellipse_286" data-name="Ellipse 286" transform="translate(0.428 0.373)" fill="none" stroke="#fff" stroke-width="3">
        <ellipse cx="23" cy="22.5" rx="23" ry="22.5" stroke="none"/>
        <ellipse cx="23" cy="22.5" rx="21.5" ry="21" fill="none"/>
      </g>
    </g>
    <g id="Group_3928" data-name="Group 3928" transform="translate(12.313 6.091)">
      <path id="Path_10110" data-name="Path 10110" d="M23.3,36.634l.681-1.835a.6.6,0,0,0-.562-.8h-12.9a3.991,3.991,0,0,0-4,3.611l-.533,4.913a.964.964,0,0,0,.74,1.036c.533.118,1.243.207,1.953.3l.444,7.814a1.234,1.234,0,0,0,1.243,1.154h3.759a1.255,1.255,0,0,0,1.243-1.154l.681-13.437a1.219,1.219,0,0,1,1.213-1.213h5.475A.579.579,0,0,0,23.3,36.634Z" transform="translate(-5.977 -24.677)" fill="#fff"/>
      <ellipse id="Ellipse_287" data-name="Ellipse 287" cx="4.114" cy="4.114" rx="4.114" ry="4.114" transform="translate(2.197 0)" fill="#fff"/>
      <path id="Path_10111" data-name="Path 10111" d="M54.978,49.7a6.778,6.778,0,1,0,6.778,6.778A6.8,6.8,0,0,0,54.978,49.7Zm.592,10.122v.858a.171.171,0,0,1-.178.178h-.829a.171.171,0,0,1-.178-.178v-.829a1.742,1.742,0,0,1-1.628-1.539.171.171,0,0,1,.178-.178h.829a.135.135,0,0,1,.148.118.57.57,0,0,0,.562.444h.77a.829.829,0,1,0,.03-1.657h-.533a2.078,2.078,0,0,1-2.072-1.776A1.98,1.98,0,0,1,54.386,53.1v-.829a.171.171,0,0,1,.178-.178h.829a.191.191,0,0,1,.178.178V53.1A1.742,1.742,0,0,1,57.2,54.643a.171.171,0,0,1-.178.178h-.829c-.059,0-.148-.059-.148-.118a.57.57,0,0,0-.562-.444h-.74a.842.842,0,0,0-.858.74.817.817,0,0,0,.829.918h.622a2,2,0,0,1,1.983,2.19A2.073,2.073,0,0,1,55.57,59.822Z" transform="translate(-35.703 -35.73)" fill="#fff"/>
    </g>
  </g>
</svg>
