<svg id="noun_magnifier_3261483" xmlns="http://www.w3.org/2000/svg" width="25.073" height="22.947" viewBox="0 0 25.073 22.947">
  <path id="Path_4" data-name="Path 4" d="M24.685,14.251a8.383,8.383,0,0,0-2.817-6.222,10.021,10.021,0,0,0-6.8-2.577,10.023,10.023,0,0,0-6.8,2.577,8.29,8.29,0,0,0,0,12.445,10.022,10.022,0,0,0,6.8,2.577,10.167,10.167,0,0,0,5.467-1.565L21.643,22.5l-.068.062a.44.44,0,0,0,0,.661l5.151,4.713a1.843,1.843,0,0,0,2.44,0l.858-.786a1.487,1.487,0,0,0,0-2.232l-5.151-4.714a.545.545,0,0,0-.722,0l-.068.062-1.108-1.014A8.226,8.226,0,0,0,24.685,14.251ZM8.99,19.813a7.41,7.41,0,0,1,0-11.123,8.958,8.958,0,0,1,6.078-2.3,8.957,8.957,0,0,1,6.078,2.3,7.4,7.4,0,0,1,0,11.123,8.956,8.956,0,0,1-6.078,2.3A8.957,8.957,0,0,1,8.99,19.813ZM29.3,25.58a.607.607,0,0,1,0,.911l-.858.786a.751.751,0,0,1-1,0l-4.79-4.383.068-.063,1.717-1.571.068-.063Zm-6.936-3.741-1-.91,1-.911.995.911Z" transform="translate(-5.455 -5.451)" fill="#777171"/>
  <path id="Path_5" data-name="Path 5" d="M22.472,12.136a7.678,7.678,0,0,0-10.166,0,6.19,6.19,0,0,0,0,9.3,7.678,7.678,0,0,0,10.166,0A6.2,6.2,0,0,0,22.472,12.136Zm-.722,8.642a6.587,6.587,0,0,1-8.721,0,5.31,5.31,0,0,1,0-7.981,6.587,6.587,0,0,1,8.721,0A5.317,5.317,0,0,1,21.75,20.777Z" transform="translate(-7.777 -7.987)" fill="#777171"/>
  <path id="Path_6" data-name="Path 6" d="M16.222,20.758a.49.49,0,0,0-.511.467v2.357a.513.513,0,0,0,1.022,0V21.226A.49.49,0,0,0,16.222,20.758Z" transform="translate(-10.473 -13.604)" fill="#777171"/>
  <path id="Path_7" data-name="Path 7" d="M20.424,23.28a.49.49,0,0,0-.511.467V26.1a.513.513,0,0,0,1.022,0V23.747A.49.49,0,0,0,20.424,23.28Z" transform="translate(-12.529 -14.947)" fill="#777171"/>
</svg>
