<svg id="id-card" xmlns="http://www.w3.org/2000/svg" width="31.238" height="27.073" viewBox="0 0 31.238 27.073">
  <g id="Group_4035" data-name="Group 4035" transform="translate(2.083 7.283)">
    <g id="Group_4034" data-name="Group 4034">
      <path id="Path_10310" data-name="Path 10310" d="M39.779,151.344a4.165,4.165,0,1,0-5.145,0,3.649,3.649,0,0,0-2.634,3.5v6.248a.521.521,0,0,0,.521.521h9.371a.521.521,0,0,0,.521-.521v-6.248A3.649,3.649,0,0,0,39.779,151.344Zm-5.7-3.27a3.124,3.124,0,1,1,3.124,3.124A3.124,3.124,0,0,1,34.083,148.075Zm3.6,7.712-.481.722-.481-.721.481-1.923Zm3.685,4.783h-8.33v-5.727a2.606,2.606,0,0,1,2.6-2.6h.9l-.88,3.518a.521.521,0,0,0,.072.417l1.041,1.562a.521.521,0,0,0,.866,0l1.041-1.562a.521.521,0,0,0,.072-.417l-.88-3.518h.9a2.606,2.606,0,0,1,2.6,2.6Z" transform="translate(-32 -143.903)" fill="#fff"/>
    </g>
  </g>
  <g id="Group_4037" data-name="Group 4037" transform="translate(16.096 11.013)">
    <g id="Group_4036" data-name="Group 4036" transform="translate(0 0)">
      <rect id="Rectangle_1917" data-name="Rectangle 1917" width="1" height="1" transform="translate(-0.096 -0.013)" fill="#fff"/>
    </g>
  </g>
  <g id="Group_4039" data-name="Group 4039" transform="translate(18.355 11.013)">
    <g id="Group_4038" data-name="Group 4038" transform="translate(0 0)">
      <rect id="Rectangle_1918" data-name="Rectangle 1918" width="1" height="1" transform="translate(-0.355 -0.013)" fill="#fff"/>
    </g>
  </g>
  <g id="Group_4041" data-name="Group 4041" transform="translate(20.331 11.013)">
    <g id="Group_4040" data-name="Group 4040" transform="translate(0 0)">
      <rect id="Rectangle_1919" data-name="Rectangle 1919" width="1" height="1" transform="translate(-0.331 -0.013)" fill="#fff"/>
    </g>
  </g>
  <g id="Group_4043" data-name="Group 4043" transform="translate(22.308 11.013)">
    <g id="Group_4042" data-name="Group 4042" transform="translate(0 0)">
      <rect id="Rectangle_1920" data-name="Rectangle 1920" width="1" height="1" transform="translate(-0.308 -0.013)" fill="#fff"/>
    </g>
  </g>
  <g id="Group_4045" data-name="Group 4045" transform="translate(24.567 11.013)">
    <g id="Group_4044" data-name="Group 4044" transform="translate(0 0)">
      <rect id="Rectangle_1921" data-name="Rectangle 1921" height="1" transform="translate(0.433 -0.013)" fill="#fff"/>
    </g>
  </g>
  <g id="Group_4047" data-name="Group 4047" transform="translate(26.544 11.013)">
    <g id="Group_4046" data-name="Group 4046" transform="translate(0 0)">
      <rect id="Rectangle_1922" data-name="Rectangle 1922" width="1" height="1" transform="translate(0.456 -0.013)" fill="#fff"/>
    </g>
  </g>
  <g id="Group_4049" data-name="Group 4049" transform="translate(0 0)">
    <g id="Group_4048" data-name="Group 4048">
      <path id="Path_10311" data-name="Path 10311" d="M27.594,37.206H20.826V35.644a.521.521,0,0,0-.521-.521H18.743v-2.6A.521.521,0,0,0,18.222,32H13.016a.521.521,0,0,0-.521.521v2.6H10.933a.521.521,0,0,0-.521.521v1.562H.521A.521.521,0,0,0,0,37.727V58.553a.521.521,0,0,0,.521.521h30.2a.521.521,0,0,0,.521-.521v-17.7A3.649,3.649,0,0,0,27.594,37.206ZM13.537,33.041H17.7v2.083H13.537Zm-2.083,3.124h8.33v2.6a.521.521,0,0,1-.521.521H11.975a.521.521,0,0,1-.521-.521ZM30.2,58.032H1.041V38.248h9.371v.521a1.562,1.562,0,0,0,1.562,1.562h7.289a1.562,1.562,0,0,0,1.562-1.562v-.521h6.768a2.606,2.606,0,0,1,2.6,2.6Z" transform="translate(0 -32)" fill="#fff"/>
    </g>
  </g>
  <g id="Group_4051" data-name="Group 4051" transform="translate(14.684 16.66)">
    <g id="Group_4050" data-name="Group 4050" transform="translate(0)">
      <rect id="Rectangle_1923" data-name="Rectangle 1923" width="14" height="1" transform="translate(0.316 0.34)" fill="#fff"/>
    </g>
  </g>
  <g id="Group_4053" data-name="Group 4053" transform="translate(14.684 18.637)">
    <g id="Group_4052" data-name="Group 4052" transform="translate(0 0)">
      <rect id="Rectangle_1924" data-name="Rectangle 1924" width="14" height="1" transform="translate(0.316 0.363)" fill="#fff"/>
    </g>
  </g>
  <g id="Group_4055" data-name="Group 4055" transform="translate(14.684 20.896)">
    <g id="Group_4054" data-name="Group 4054" transform="translate(0 0)">
      <rect id="Rectangle_1925" data-name="Rectangle 1925" width="14" height="1" transform="translate(0.316 0.104)" fill="#fff"/>
    </g>
  </g>
  <g id="Group_4057" data-name="Group 4057" transform="translate(14.684 22.873)">
    <g id="Group_4056" data-name="Group 4056" transform="translate(0 0)">
      <rect id="Rectangle_1926" data-name="Rectangle 1926" width="14" height="1" transform="translate(0.316 0.127)" fill="#fff"/>
    </g>
  </g>
</svg>
