<svg xmlns="http://www.w3.org/2000/svg" width="25.111" height="26.115" viewBox="0 0 25.111 26.115">
  <g id="noun_Birth_date_3085969" data-name="noun_Birth date_3085969" opacity="0.4">
    <g id="Group_59" data-name="Group 59">
      <path id="Path_69" data-name="Path 69" d="M9.891,286.681a3.013,3.013,0,1,0,3.015,3.015A3.02,3.02,0,0,0,9.891,286.681Z" transform="translate(2.663 -277.139)" fill="#777171"/>
      <path id="Path_70" data-name="Path 70" d="M10.078,290.385A4.291,4.291,0,0,0,5.556,294.4v2.513a.5.5,0,0,0,.5.5H16.1a.5.5,0,0,0,.5-.5V294.4a4.291,4.291,0,0,0-4.522-4.018Z" transform="translate(1.475 -273.812)" fill="#777171"/>
      <path id="Path_71" data-name="Path 71" d="M2.352,282.712a.5.5,0,0,0-.5.5v23.106a.5.5,0,0,0,.5.5H26.459a.5.5,0,0,0,.5-.5V283.212a.5.5,0,0,0-.5-.5H20.935v2.508a.5.5,0,0,1-.5.5H17.418a.5.5,0,0,1-.5-.5v-2.508H11.9v2.508a.5.5,0,0,1-.5.5H8.384a.5.5,0,0,1-.5-.5v-2.508Zm.5,6.028h23.1v17.075H2.857Z" transform="translate(-1.852 -280.704)" fill="#777171"/>
      <path id="Path_72" data-name="Path 72" d="M6.059,281.654a.5.5,0,0,0-.5.5v3.516H7.566v-3.516a.5.5,0,0,0-.5-.5Z" transform="translate(1.475 -281.654)" fill="#777171"/>
      <path id="Path_73" data-name="Path 73" d="M10.821,281.654a.5.5,0,0,0-.5.5v3.516h2.009v-3.516a.5.5,0,0,0-.5-.5Z" transform="translate(5.752 -281.654)" fill="#777171"/>
    </g>
  </g>
</svg>
