<svg xmlns="http://www.w3.org/2000/svg" width="26.567" height="28.456" viewBox="0 0 26.567 28.456">
  <g id="location_1_" data-name="location (1)" transform="translate(-16.996)" opacity="0.7">
    <path id="Path_10328" data-name="Path 10328" d="M42.555,371.491H35.239V369.72h6.734l-1.067-3.247H35.825a33.5,33.5,0,0,0-4.2,4.525l-1.347,1.847L28.933,371a33.662,33.662,0,0,0-4.2-4.525H19.653l-1.067,3.247H25.32v1.771H18L17,374.561H43.563Z" transform="translate(0 -346.105)" fill="#fff"/>
    <path id="Path_10329" data-name="Path 10329" d="M90.471,23.911c4.019-5.509,9.741-7.635,9.741-14.169a9.741,9.741,0,0,0-19.483,0C80.73,16.275,86.454,18.4,90.471,23.911Zm0-16.46a2.657,2.657,0,1,1-2.657,2.657A2.662,2.662,0,0,1,90.471,7.451Z" transform="translate(-60.192)" fill="#fff"/>
  </g>
</svg>
