<svg xmlns="http://www.w3.org/2000/svg" width="25.185" height="17" viewBox="0 0 25.185 17">
  <g id="noun_Mail_1703244" opacity="0.4">
    <g id="Group_53" data-name="Group 53">
      <path id="Path_61" data-name="Path 61" d="M11.889,975.362a1.9,1.9,0,0,0-.708.138l10.7,9.641a.933.933,0,0,0,1.4,0L34,975.5a1.9,1.9,0,0,0-.708-.138H11.889ZM10.02,977a1.953,1.953,0,0,0-.02.256v13.222a1.885,1.885,0,0,0,1.889,1.889H33.3a1.885,1.885,0,0,0,1.889-1.889V977.251a1.953,1.953,0,0,0-.02-.256l-10.625,9.553a2.939,2.939,0,0,1-3.916,0L10.02,977Z" transform="translate(-10 -975.362)" fill="#777171"/>
    </g>
  </g>
</svg>
