<svg xmlns="http://www.w3.org/2000/svg" width="28.359" height="28.457" viewBox="0 0 28.359 28.457">
  <g id="internet" opacity="0.7">
    <path id="Path_10312" data-name="Path 10312" d="M163.522,272H152.547a.278.278,0,0,0-.278.284c.033,1.286.12,2.515.253,3.677a.278.278,0,0,0,.344.239,21.087,21.087,0,0,1,10.337,0,.278.278,0,0,0,.344-.239c.133-1.162.22-2.391.253-3.677A.278.278,0,0,0,163.522,272Z" transform="translate(-143.855 -256.882)" fill="#fff"/>
    <path id="Path_10313" data-name="Path 10313" d="M163.547,164.517a.278.278,0,0,0-.344-.239,21.086,21.086,0,0,1-10.337,0,.278.278,0,0,0-.344.239c-.133,1.162-.22,2.391-.253,3.677a.278.278,0,0,0,.278.284h10.974a.278.278,0,0,0,.278-.284C163.767,166.908,163.679,165.679,163.547,164.517Z" transform="translate(-143.855 -155.14)" fill="#fff"/>
    <path id="Path_10314" data-name="Path 10314" d="M173.264,7.032A22.209,22.209,0,0,0,171.122.42a.277.277,0,0,0-.188-.137,14.4,14.4,0,0,0-5.678,0,.277.277,0,0,0-.188.137,22.208,22.208,0,0,0-2.142,6.612.277.277,0,0,0,.2.317A19.082,19.082,0,0,0,168.1,8a19.08,19.08,0,0,0,4.969-.655A.277.277,0,0,0,173.264,7.032Z" transform="translate(-153.916 0)" fill="#fff"/>
    <path id="Path_10315" data-name="Path 10315" d="M355.743,22.594a.278.278,0,0,0-.373.355l0,.012a27.71,27.71,0,0,1,1.309,4.73.278.278,0,0,0,.379.2,19.093,19.093,0,0,0,3.119-1.632.279.279,0,0,0,.054-.423q-.169-.182-.346-.359A14.222,14.222,0,0,0,355.743,22.594Z" transform="translate(-335.65 -21.314)" fill="#fff"/>
    <path id="Path_10316" data-name="Path 10316" d="M386.538,120.165h6.079a.279.279,0,0,0,.277-.3,14.089,14.089,0,0,0-2.285-6.625.279.279,0,0,0-.388-.079,20.826,20.826,0,0,1-3.371,1.806q-.364.154-.733.294a.278.278,0,0,0-.178.295c.175,1.395.283,2.85.32,4.34A.278.278,0,0,0,386.538,120.165Z" transform="translate(-364.537 -106.826)" fill="#fff"/>
    <path id="Path_10317" data-name="Path 10317" d="M162.927,368.972a22.209,22.209,0,0,0,2.142,6.612.277.277,0,0,0,.188.137,14.4,14.4,0,0,0,5.678,0,.277.277,0,0,0,.188-.137,22.208,22.208,0,0,0,2.142-6.612.277.277,0,0,0-.2-.317,19.177,19.177,0,0,0-9.938,0A.277.277,0,0,0,162.927,368.972Z" transform="translate(-153.916 -347.547)" fill="#fff"/>
    <path id="Path_10318" data-name="Path 10318" d="M6.925,277.2q.364-.154.733-.294a.278.278,0,0,0,.178-.295c-.175-1.395-.283-2.85-.32-4.34A.278.278,0,0,0,7.238,272H1.159a.279.279,0,0,0-.277.3,14.089,14.089,0,0,0,2.285,6.625.279.279,0,0,0,.388.079A20.822,20.822,0,0,1,6.925,277.2Z" transform="translate(-0.881 -256.883)" fill="#fff"/>
    <path id="Path_10319" data-name="Path 10319" d="M360.183,394.863a19.09,19.09,0,0,0-3.119-1.632.278.278,0,0,0-.379.2,27.7,27.7,0,0,1-1.309,4.73l0,.012a.278.278,0,0,0,.373.355,14.223,14.223,0,0,0,4.147-2.887q.177-.177.346-.359A.279.279,0,0,0,360.183,394.863Z" transform="translate(-335.651 -371.356)" fill="#fff"/>
    <path id="Path_10320" data-name="Path 10320" d="M386.26,272.271c-.037,1.49-.145,2.945-.32,4.34a.278.278,0,0,0,.178.295q.368.14.733.294A20.833,20.833,0,0,1,390.222,279a.279.279,0,0,0,.388-.079,14.089,14.089,0,0,0,2.285-6.625.279.279,0,0,0-.277-.3h-6.079A.278.278,0,0,0,386.26,272.271Z" transform="translate(-364.536 -256.882)" fill="#fff"/>
    <path id="Path_10321" data-name="Path 10321" d="M67.549,26.263a19.087,19.087,0,0,0,3.119,1.632.278.278,0,0,0,.379-.2,27.705,27.705,0,0,1,1.309-4.73l0-.012a.278.278,0,0,0-.373-.355,14.227,14.227,0,0,0-4.147,2.887q-.177.177-.346.359A.279.279,0,0,0,67.549,26.263Z" transform="translate(-63.723 -21.313)" fill="#fff"/>
    <path id="Path_10322" data-name="Path 10322" d="M7.51,120.165a43.871,43.871,0,0,1,.326-4.611.278.278,0,0,0-.178-.295q-.368-.14-.733-.294a20.834,20.834,0,0,1-3.371-1.806.279.279,0,0,0-.388.079,14.089,14.089,0,0,0-2.285,6.625.279.279,0,0,0,.277.3Z" transform="translate(-0.881 -106.826)" fill="#fff"/>
    <path id="Path_10323" data-name="Path 10323" d="M71.989,398.532a.278.278,0,0,0,.373-.355l0-.012a27.71,27.71,0,0,1-1.309-4.73.278.278,0,0,0-.379-.2,19.088,19.088,0,0,0-3.119,1.632.279.279,0,0,0-.054.423q.169.182.346.359A14.222,14.222,0,0,0,71.989,398.532Z" transform="translate(-63.723 -371.355)" fill="#fff"/>
  </g>
</svg>
