<svg xmlns="http://www.w3.org/2000/svg" width="15.629" height="28.5" viewBox="0 0 15.629 28.5">
  <g id="Smartphone" transform="translate(-120 -8)" opacity="0.7">
    <path id="Path_10307" data-name="Path 10307" d="M133.331,8H122.3a2.3,2.3,0,0,0-2.3,2.3V34.2a2.3,2.3,0,0,0,2.3,2.3h11.032a2.3,2.3,0,0,0,2.3-2.3V10.3A2.3,2.3,0,0,0,133.331,8Zm-2.4.919-.276,1.379h-5.682L124.7,8.919ZM134.71,34.2a1.381,1.381,0,0,1-1.379,1.379H122.3a1.381,1.381,0,0,1-1.379-1.379V10.3A1.381,1.381,0,0,1,122.3,8.919h1.462l.386,1.929a.46.46,0,0,0,.451.37h6.435a.46.46,0,0,0,.451-.37l.386-1.929h1.462A1.381,1.381,0,0,1,134.71,10.3Z" fill="#fff"/>
    <path id="Path_10308" data-name="Path 10308" d="M155.218,456H152.46a.46.46,0,0,0,0,.919h2.758a.46.46,0,0,0,0-.919Z" transform="translate(-30.161 -422.258)" fill="#fff"/>
    <path id="Path_10309" data-name="Path 10309" d="M224.919,456h-.46a.46.46,0,0,0,0,.919h.46a.46.46,0,0,0,0-.919Z" transform="translate(-98.024 -422.258)" fill="#fff"/>
  </g>
</svg>
