<svg xmlns="http://www.w3.org/2000/svg" width="24.952" height="24.983" viewBox="0 0 24.952 24.983">
  <g id="Group_3874" data-name="Group 3874" opacity="0.4">
    <g id="Group_57" data-name="Group 57">
      <path id="Path_68" data-name="Path 68" d="M26.629,20.673l-5.1-2.63a1.7,1.7,0,0,0-2.1.447l-1.868,2.394a18.83,18.83,0,0,1-4.813-3.525,19,19,0,0,1-3.577-4.892l2.367-1.841a1.669,1.669,0,0,0,.447-2.1l-2.6-5.077a1.681,1.681,0,0,0-2.42-.631L3.692,4.97a2.56,2.56,0,0,0-1.1,2.262,16.687,16.687,0,0,0,.395,2.893A24.078,24.078,0,0,0,9.374,20.7a23.9,23.9,0,0,0,10.574,6.418,19.569,19.569,0,0,0,2.92.395,2.561,2.561,0,0,0,2.288-1.157l2.1-3.288A1.662,1.662,0,0,0,26.629,20.673Z" transform="translate(-2.583 -2.532)" fill="#777171"/>
    </g>
  </g>
</svg>
