<svg xmlns="http://www.w3.org/2000/svg" width="29.828" height="21.673" viewBox="0 0 29.828 21.673">
  <g id="Group_4140" data-name="Group 4140" transform="translate(-349.301 -771)">
    <g id="hug" transform="translate(349.301 754.189)" opacity="0.7">
      <path id="Path_10330" data-name="Path 10330" d="M97.2,33.521c.691.317,1.423.663,1.435.669a.8.8,0,0,0,.686-1.452c-.03-.014-.32-.151-.7-.329A2.466,2.466,0,0,1,97.2,33.521Z" transform="translate(-73.622 -11.814)" fill="#fff"/>
      <g id="Group_4120" data-name="Group 4120" transform="translate(0 16.811)">
        <path id="Path_10331" data-name="Path 10331" d="M35.824,31.9l-.348.318-.459-.432a2.432,2.432,0,0,1-.28-.063,7,7,0,0,0-.649.341.826.826,0,0,0,0-.3c.1-.061.206-.116.306-.169a2.529,2.529,0,0,1-1.225-1.2c-.141.086-.28.174-.412.263l-.526-.3a2.528,2.528,0,0,1-1.207,1.221c.435.226,1.493.812,1.786,1.019a.812.812,0,0,0,.2.1V36.98a3.178,3.178,0,0,0,.17,1.038c0,.034-.005.069-.005.1v.962h.006c0,.014,0,.027,0,.041v8.461a1.044,1.044,0,0,0,2.089,0V39.125c0-.014,0-.027,0-.041h.157c0,.014,0,.027,0,.041v8.461a1.044,1.044,0,0,0,1.044,1.044h0A1.045,1.045,0,0,0,37.5,47.586V39.124c0-.014,0-.027,0-.041h.012V37.99a2.156,2.156,0,0,0,.185-1.144c0-.482.049-2.279.049-2.279l.005-1.965-1.495-.818Z" transform="translate(-23.497 -27.07)" fill="#fff"/>
        <path id="Path_10332" data-name="Path 10332" d="M6.924,29.794l-.459.352-.348-.318c-.76.347-1.674.779-1.687.784a.97.97,0,0,1-.878-.021l0,0a8.16,8.16,0,0,1-1.87-2.453.884.884,0,1,0-1.59.772c.156.321,1.585,3.153,3.74,3.828a3.2,3.2,0,0,0,.374.091c.014.543.04,1.591.04,1.943a2.159,2.159,0,0,0,.185,1.145v1.093h.016c0,.014,0,.028,0,.042v8.461a1.044,1.044,0,1,0,2.089,0V37.055c0-.014,0-.027,0-.042h.157c0,.014,0,.028,0,.042v8.461a1.044,1.044,0,1,0,2.089,0V37.055c0-.015,0-.028,0-.042h0v-.962c0-.035,0-.069-.005-.1a3.181,3.181,0,0,0,.169-1.038V30.545c-.375.03-1.506-.791-1.645-.854C7.192,29.718,7.019,29.778,6.924,29.794Z" transform="translate(0 -25.016)" fill="#fff"/>
        <path id="Path_10333" data-name="Path 10333" d="M13.843,33.255a.814.814,0,0,0,.35-.079c.012-.006.744-.352,1.444-.673a2.523,2.523,0,0,1-1.48-1.124l-.665.312a.821.821,0,0,0,.351,1.564Z" transform="translate(-9.863 -27.845)" fill="#fff"/>
        <circle id="Ellipse_293" data-name="Ellipse 293" cx="2.276" cy="2.276" r="2.276" transform="translate(9.703)" fill="#fff"/>
        <circle id="Ellipse_294" data-name="Ellipse 294" cx="2.276" cy="2.276" r="2.276" transform="translate(4.214)" fill="#fff"/>
        <path id="Path_10334" data-name="Path 10334" d="M58.84,32.23l-.349.318-.459-.432a2.435,2.435,0,0,1-.28-.063,7.126,7.126,0,0,0-.649.341.826.826,0,0,0,0-.3c.1-.06.206-.116.306-.169a2.529,2.529,0,0,1-1.225-1.2c-.141.086-.28.174-.412.263l-.526-.3a2.528,2.528,0,0,1-1.207,1.221c.435.226,1.493.812,1.786,1.019a.821.821,0,0,0,.2.1v4.284A3.188,3.188,0,0,0,56.2,38.35c0,.034-.005.068-.005.1v.962H56.2c0,.014,0,.027,0,.041v8.461a1.044,1.044,0,0,0,2.089,0V39.456c0-.014,0-.027,0-.041h.157c0,.014,0,.027,0,.041v8.461a1.044,1.044,0,1,0,2.089,0V39.456c0-.014,0-.027,0-.041h.012V38.321a2.156,2.156,0,0,0,.185-1.144c0-.482.049-2.279.049-2.279l.005-1.965-1.495-.819Z" transform="translate(-40.931 -27.321)" fill="#fff"/>
        <circle id="Ellipse_295" data-name="Ellipse 295" cx="2.276" cy="2.276" r="2.276" transform="translate(15.286 0.08)" fill="#fff"/>
        <circle id="Ellipse_296" data-name="Ellipse 296" cx="2.276" cy="2.276" r="2.276" transform="translate(20.826 0.113)" fill="#fff"/>
        <path id="Path_10335" data-name="Path 10335" d="M87.565,27.461a.884.884,0,0,0-1.181.407,7.561,7.561,0,0,1-2.138,2.648.97.97,0,0,1-.875.02c-.012-.006-.926-.438-1.687-.784l-.349.318-.459-.432a2.426,2.426,0,0,1-.28-.063,7.065,7.065,0,0,0-.649.341.827.827,0,0,0,0-.3c.1-.06.206-.116.306-.169a2.528,2.528,0,0,1-1.225-1.2c-.141.086-.28.174-.412.263l-.526-.3a2.528,2.528,0,0,1-1.207,1.221c.435.226,1.492.812,1.786,1.019a.835.835,0,0,0,.2.1v4.284a3.178,3.178,0,0,0,.169,1.038c0,.034-.005.069-.005.1v.962h.006c0,.014,0,.027,0,.041v8.461a1.044,1.044,0,0,0,2.089,0V36.977c0-.014,0-.027,0-.041h.157c0,.014,0,.027,0,.041v8.461a1.045,1.045,0,0,0,1.044,1.045h0a1.045,1.045,0,0,0,1.044-1.044V36.978c0-.014,0-.027,0-.041h.012V35.843a2.156,2.156,0,0,0,.185-1.144c0-.39.032-1.638.045-2.1a2.958,2.958,0,0,0,.316-.048l.008,0,0-.006c.1-.021.2-.046.3-.077,2.155-.675,3.584-3.507,3.74-3.828A.885.885,0,0,0,87.565,27.461Z" transform="translate(-58.234 -24.81)" fill="#fff"/>
      </g>
    </g>
  </g>
</svg>
